<svg width="300" height="300" viewBox="0 0 300 300" fill="none" xmlns="http://www.w3.org/2000/svg">
<path d="M55.5 26.7917V16.5833M55.5 16.5833L59.875 20.9583M55.5 16.5833L51.125 20.9583" stroke="white" stroke-width="1.5" stroke-linecap="round" stroke-linejoin="round"/>
<path d="M61.3333 12.2083H55.5H49.6667" stroke="white" stroke-width="1.5" stroke-linecap="round"/>
<path d="M40.9167 19.5C40.9167 12.6253 40.9167 9.18802 43.0524 7.05235C45.188 4.91667 48.6253 4.91667 55.5 4.91667C62.3746 4.91667 65.812 4.91667 67.9476 7.05235C70.0833 9.18802 70.0833 12.6253 70.0833 19.5C70.0833 26.3746 70.0833 29.812 67.9476 31.9476C65.812 34.0833 62.3746 34.0833 55.5 34.0833C48.6253 34.0833 45.188 34.0833 43.0524 31.9476C40.9167 29.812 40.9167 26.3746 40.9167 19.5Z" stroke="white" stroke-width="1.5"/>
<path d="M26 155.417V140.833M26 140.833L32.25 147.083M26 140.833L19.75 147.083" stroke="#666666" stroke-width="2" stroke-linecap="round" stroke-linejoin="round"/>
<path d="M34.3333 134.583H26H17.6667" stroke="#666666" stroke-width="2" stroke-linecap="round"/>
<path d="M5.16667 145C5.16667 135.179 5.16667 130.269 8.21765 127.218C11.2686 124.167 16.1791 124.167 26 124.167C35.8208 124.167 40.7315 124.167 43.7823 127.218C46.8333 130.269 46.8333 135.179 46.8333 145C46.8333 154.821 46.8333 159.731 43.7823 162.782C40.7315 165.833 35.8208 165.833 26 165.833C16.1791 165.833 11.2686 165.833 8.21765 162.782C5.16667 159.731 5.16667 154.821 5.16667 145Z" stroke="#666666" stroke-width="2"/>
<path d="M76.9167 19.5C76.9167 12.6253 76.9167 9.18802 79.0523 7.05235C81.188 4.91667 84.6253 4.91667 91.5 4.91667C98.3746 4.91667 101.812 4.91667 103.948 7.05235C106.083 9.18802 106.083 12.6253 106.083 19.5C106.083 26.3746 106.083 29.812 103.948 31.9476C101.812 34.0833 98.3746 34.0833 91.5 34.0833C84.6253 34.0833 81.188 34.0833 79.0523 31.9476C76.9167 29.812 76.9167 26.3746 76.9167 19.5Z" stroke="white" stroke-width="1.5"/>
<path d="M82 25C82 23.1144 82 22.1716 82.5858 21.5858C83.1716 21 84.1144 21 86 21C87.8856 21 88.8284 21 89.4142 21.5858C90 22.1716 90 23.1144 90 25C90 26.8856 90 27.8284 89.4142 28.4142C88.8284 29 87.8856 29 86 29C84.1144 29 83.1716 29 82.5858 28.4142C82 27.8284 82 26.8856 82 25Z" stroke="white" stroke-width="1.5"/>
<path d="M93 25C93 23.1144 93 22.1716 93.5858 21.5858C94.1716 21 95.1144 21 97 21C98.8856 21 99.8284 21 100.414 21.5858C101 22.1716 101 23.1144 101 25C101 26.8856 101 27.8284 100.414 28.4142C99.8284 29 98.8856 29 97 29C95.1144 29 94.1716 29 93.5858 28.4142C93 27.8284 93 26.8856 93 25Z" stroke="white" stroke-width="1.5"/>
<path d="M82 14C82 12.1144 82 11.1716 82.5858 10.5858C83.1716 10 84.1144 10 86 10C87.8856 10 88.8284 10 89.4142 10.5858C90 11.1716 90 12.1144 90 14C90 15.8856 90 16.8284 89.4142 17.4142C88.8284 18 87.8856 18 86 18C84.1144 18 83.1716 18 82.5858 17.4142C82 16.8284 82 15.8856 82 14Z" stroke="white" stroke-width="1.5"/>
<path d="M93 14C93 12.1144 93 11.1716 93.5858 10.5858C94.1716 10 95.1144 10 97 10C98.8856 10 99.8284 10 100.414 10.5858C101 11.1716 101 12.1144 101 14C101 15.8856 101 16.8284 100.414 17.4142C99.8284 18 98.8856 18 97 18C95.1144 18 94.1716 18 93.5858 17.4142C93 16.8284 93 15.8856 93 14Z" stroke="white" stroke-width="1.5"/>
<path d="M112.917 19.5C112.917 12.6253 112.917 9.18802 115.052 7.05235C117.188 4.91667 120.625 4.91667 127.5 4.91667C134.375 4.91667 137.812 4.91667 139.948 7.05235C142.083 9.18802 142.083 12.6253 142.083 19.5C142.083 26.3746 142.083 29.812 139.948 31.9476C137.812 34.0833 134.375 34.0833 127.5 34.0833C120.625 34.0833 117.188 34.0833 115.052 31.9476C112.917 29.812 112.917 26.3746 112.917 19.5Z" stroke="white" stroke-width="1.5"/>
<g clip-path="url(#clip0_1_2)">
<path d="M136.892 16.9137C136.892 16.3929 136.557 15.9541 136.093 15.7892V15.261C136.557 15.0966 136.892 14.6581 136.892 14.1374C136.892 13.6166 136.557 13.1778 136.093 13.0136V12.2751C136.48 12.0743 136.748 11.6742 136.748 11.2073C136.748 10.5403 136.208 10 135.541 10C134.98 10 134.513 10.3841 134.377 10.9027H134.102C133.922 10.4681 133.495 10.161 132.996 10.161C132.496 10.161 132.069 10.4681 131.89 10.9027H131.389C131.21 10.4681 130.783 10.161 130.284 10.161C129.784 10.161 129.357 10.4681 129.177 10.9027H128.639C128.46 10.4681 128.034 10.161 127.534 10.161C127.034 10.161 126.607 10.4681 126.428 10.9027H125.938C125.759 10.4681 125.332 10.161 124.833 10.161C124.333 10.161 123.906 10.4681 123.726 10.9027H123.162C122.983 10.4681 122.556 10.161 122.056 10.161C121.556 10.161 121.13 10.4681 120.951 10.9027H120.478C120.32 10.4204 119.872 10.0699 119.336 10.0699C118.669 10.0699 118.129 10.6105 118.129 11.2772C118.129 11.8121 118.479 12.2596 118.96 12.4187V12.9972C118.469 13.1462 118.108 13.5969 118.108 14.1372C118.108 14.6776 118.469 15.1282 118.96 15.2771V15.7729C118.469 15.9219 118.108 16.3731 118.108 16.9137C118.108 17.4533 118.469 17.9046 118.96 18.0535V18.4747C118.469 18.6235 118.108 19.0743 118.108 19.6147C118.108 20.1549 118.469 20.6057 118.96 20.7545V21.2243C118.469 21.3729 118.108 21.8241 118.108 22.3648C118.108 22.9046 118.469 23.3556 118.96 23.5045V23.9363C118.469 24.0853 118.108 24.5365 118.108 25.0768C118.108 25.6168 118.469 26.0678 118.96 26.217V26.6558C118.516 26.8347 118.202 27.267 118.202 27.775C118.202 28.442 118.742 28.9823 119.409 28.9823C119.987 28.9823 120.468 28.5766 120.587 28.0353H120.779C120.934 28.5163 121.381 28.8672 121.913 28.8672C122.446 28.8672 122.892 28.5163 123.047 28.0353H123.491C123.646 28.5163 124.093 28.8672 124.625 28.8672C125.158 28.8672 125.605 28.5163 125.76 28.0353H126.241C126.396 28.5163 126.842 28.8672 127.375 28.8672C127.908 28.8672 128.354 28.5163 128.509 28.0353H128.942C129.097 28.5163 129.544 28.8672 130.076 28.8672C130.609 28.8672 131.056 28.5163 131.211 28.0353H131.719C131.874 28.5163 132.319 28.8672 132.853 28.8672C133.386 28.8672 133.831 28.5163 133.986 28.0353H134.408C134.52 28.5857 135.007 29 135.591 29C136.258 29 136.798 28.4593 136.798 27.7929C136.798 27.3055 136.508 26.8886 136.093 26.6972V26.2008C136.557 26.0353 136.892 25.5967 136.892 25.0768C136.892 24.5562 136.557 24.1174 136.093 23.9525V23.4883C136.557 23.3232 136.892 22.8847 136.892 22.3648C136.892 21.8441 136.557 21.4051 136.093 21.2405V20.7383C136.557 20.5739 136.892 20.1354 136.892 19.6147C136.892 19.0939 136.557 18.6551 136.093 18.4911V18.0376C136.557 17.8722 136.892 17.4337 136.892 16.9137ZM134.023 25.9656H121.029V12.9723H134.023V25.9656Z" fill="white"/>
</g>
<path d="M148.917 19.5C148.917 12.6253 148.917 9.18802 151.052 7.05235C153.188 4.91667 156.625 4.91667 163.5 4.91667C170.375 4.91667 173.812 4.91667 175.948 7.05235C178.083 9.18802 178.083 12.6253 178.083 19.5C178.083 26.3746 178.083 29.812 175.948 31.9476C173.812 34.0833 170.375 34.0833 163.5 34.0833C156.625 34.0833 153.188 34.0833 151.052 31.9476C148.917 29.812 148.917 26.3746 148.917 19.5Z" stroke="white" stroke-width="1.5"/>
<path d="M154.303 24.299L152.726 25.0896" stroke="white" stroke-width="1.3" stroke-miterlimit="10" stroke-linecap="round" stroke-linejoin="round"/>
<path d="M153.91 25.4828L153.119 23.9058" stroke="white" stroke-width="1.3" stroke-miterlimit="10" stroke-linecap="round" stroke-linejoin="round"/>
<path d="M174.379 25.0875L172.802 25.8781" stroke="white" stroke-width="1.3" stroke-miterlimit="10" stroke-linecap="round" stroke-linejoin="round"/>
<path d="M173.986 26.2713L173.196 24.6943" stroke="white" stroke-width="1.3" stroke-miterlimit="10" stroke-linecap="round" stroke-linejoin="round"/>
<path d="M155.773 27.582L154.893 28.0229" stroke="white" stroke-width="1.3" stroke-miterlimit="10" stroke-linecap="round" stroke-linejoin="round"/>
<path d="M155.554 28.2423L155.113 27.3622" stroke="white" stroke-width="1.3" stroke-miterlimit="10" stroke-linecap="round" stroke-linejoin="round"/>
<path d="M167.511 9.997L166.631 10.4379" stroke="white" stroke-width="1.3" stroke-miterlimit="10" stroke-linecap="round" stroke-linejoin="round"/>
<path d="M167.292 10.6577L166.851 9.7772" stroke="white" stroke-width="1.3" stroke-miterlimit="10" stroke-linecap="round" stroke-linejoin="round"/>
<path d="M159.049 9.99573L158.169 10.437" stroke="white" stroke-width="1.3" stroke-miterlimit="10" stroke-linecap="round" stroke-linejoin="round"/>
<path d="M158.829 10.6564L158.389 9.77636" stroke="white" stroke-width="1.3" stroke-miterlimit="10" stroke-linecap="round" stroke-linejoin="round"/>
<path d="M171.944 27.582L171.064 28.0229" stroke="white" stroke-width="1.3" stroke-miterlimit="10" stroke-linecap="round" stroke-linejoin="round"/>
<path d="M171.724 28.2423L171.284 27.3622" stroke="white" stroke-width="1.3" stroke-miterlimit="10" stroke-linecap="round" stroke-linejoin="round"/>
<path d="M170.633 12.7497H156.367V24.1243H170.633V12.7497Z" stroke="white" stroke-width="1.3" stroke-miterlimit="10" stroke-linecap="round" stroke-linejoin="round"/>
<path d="M163.617 24.1243L158.609 28.2503" stroke="white" stroke-width="1.3" stroke-miterlimit="10" stroke-linecap="round" stroke-linejoin="round"/>
<path d="M168.625 28.2503L163.617 24.1243V26.9505" stroke="white" stroke-width="1.3" stroke-miterlimit="10" stroke-linecap="round" stroke-linejoin="round"/>
<path d="M159.42 16.5124H167.58" stroke="white" stroke-width="1.3" stroke-miterlimit="10" stroke-linecap="round" stroke-linejoin="round"/>
<path d="M159.42 17.7954H167.58" stroke="white" stroke-width="1.3" stroke-miterlimit="10" stroke-linecap="round" stroke-linejoin="round"/>
<path d="M159.42 19.0787H167.58" stroke="white" stroke-width="1.3" stroke-miterlimit="10" stroke-linecap="round" stroke-linejoin="round"/>
<path d="M159.42 20.362H167.58" stroke="white" stroke-width="1.3" stroke-miterlimit="10" stroke-linecap="round" stroke-linejoin="round"/>
<path d="M184.917 19.5C184.917 12.6253 184.917 9.18802 187.052 7.05235C189.188 4.91667 192.625 4.91667 199.5 4.91667C206.375 4.91667 209.812 4.91667 211.948 7.05235C214.083 9.18802 214.083 12.6253 214.083 19.5C214.083 26.3746 214.083 29.812 211.948 31.9476C209.812 34.0833 206.375 34.0833 199.5 34.0833C192.625 34.0833 189.188 34.0833 187.052 31.9476C184.917 29.812 184.917 26.3746 184.917 19.5Z" stroke="white" stroke-width="1.5"/>
<g clip-path="url(#clip1_1_2)">
<path d="M206.515 21.8354L209.125 20.8685L209.115 18.0615L206.493 17.1121C206.386 16.7976 206.259 16.4907 206.111 16.1934L207.274 13.662L205.281 11.6845L202.756 12.8666C202.458 12.7188 202.15 12.5913 201.835 12.4851L200.869 9.875L198.061 9.8855L197.112 12.507C196.798 12.6138 196.491 12.7415 196.193 12.8894L193.662 11.7265L191.685 13.718L192.867 16.245C192.719 16.5428 192.591 16.8504 192.485 17.1655L189.875 18.1315L189.885 20.9385L192.507 21.8879C192.614 22.2024 192.741 22.5093 192.889 22.8066L191.726 25.338L193.718 27.3155L196.244 26.1334C196.542 26.2813 196.849 26.4087 197.165 26.5149L198.131 29.125L200.939 29.1145L201.888 26.493C202.202 26.3863 202.509 26.2585 202.807 26.1106L205.338 27.2735L207.315 25.282L206.133 22.7559C206.281 22.458 206.409 22.1505 206.515 21.8354ZM206.264 25.0991L205.148 26.2235L202.791 25.1402L202.415 25.3284C202.153 25.4584 201.881 25.571 201.604 25.6652L201.208 25.8017L200.324 28.2421L198.74 28.2482L197.839 25.8166L197.44 25.6845C197.163 25.5907 196.892 25.4781 196.63 25.3476L196.254 25.1639L193.902 26.2637L192.776 25.1481L193.861 22.79L193.672 22.4137C193.541 22.1515 193.428 21.8808 193.334 21.6035L193.198 21.208L190.757 20.3243L190.753 18.7405L193.183 17.8393L193.316 17.4402C193.409 17.1626 193.521 16.8917 193.651 16.6291L193.837 16.2529L192.736 13.9009L193.852 12.7765L196.209 13.8597L196.585 13.6716C196.847 13.5416 197.119 13.429 197.396 13.3347L197.792 13.1982L198.676 10.7579L200.26 10.7518L201.161 13.1834L201.56 13.3155C201.837 13.4093 202.107 13.5218 202.369 13.6524L202.745 13.837L205.1 12.7362L206.224 13.8519L205.14 16.21L205.329 16.5863C205.46 16.8485 205.573 17.1192 205.667 17.3965L205.803 17.792L208.244 18.6757L208.248 20.2595L205.818 21.1607L205.685 21.5598C205.592 21.8374 205.479 22.1083 205.349 22.3709L205.164 22.7471L206.264 25.0991ZM199.5 15.3C198.669 15.3 197.857 15.5463 197.167 16.0078C196.476 16.4693 195.938 17.1253 195.62 17.8927C195.302 18.6602 195.219 19.5047 195.381 20.3194C195.543 21.1341 195.943 21.8825 196.53 22.4698C197.118 23.0572 197.866 23.4572 198.681 23.6193C199.495 23.7814 200.34 23.6982 201.107 23.3803C201.875 23.0624 202.531 22.5241 202.992 21.8334C203.454 21.1427 203.7 20.3307 203.7 19.5C203.7 18.3861 203.258 17.3178 202.47 16.5302C201.682 15.7425 200.614 15.3 199.5 15.3ZM199.5 22.825C198.842 22.825 198.2 22.63 197.653 22.2646C197.106 21.8993 196.68 21.38 196.428 20.7724C196.176 20.1649 196.111 19.4963 196.239 18.8513C196.367 18.2063 196.684 17.6139 197.149 17.1489C197.614 16.6839 198.206 16.3672 198.851 16.2389C199.496 16.1106 200.165 16.1764 200.772 16.4281C201.38 16.6798 201.899 17.1059 202.265 17.6527C202.63 18.1995 202.825 18.8424 202.825 19.5C202.824 20.3816 202.473 21.2267 201.85 21.8501C201.227 22.4735 200.382 22.8241 199.5 22.825Z" fill="white"/>
</g>
<path d="M4.91667 19.5C4.91667 12.6253 4.91667 9.18802 7.05235 7.05235C9.18802 4.91667 12.6253 4.91667 19.5 4.91667C26.3746 4.91667 29.812 4.91667 31.9476 7.05235C34.0833 9.18802 34.0833 12.6253 34.0833 19.5C34.0833 26.3746 34.0833 29.812 31.9476 31.9476C29.812 34.0833 26.3746 34.0833 19.5 34.0833C12.6253 34.0833 9.18802 34.0833 7.05235 31.9476C4.91667 29.812 4.91667 26.3746 4.91667 19.5Z" stroke="white" stroke-width="1.5"/>
<path d="M33.3333 23.6502L30.5667 20.8837C30.4552 20.772 30.3372 20.6662 30.2047 20.5807C29.0088 19.8093 27.4418 19.8798 26.3168 20.7798L21.9033 24.3108C20.7698 25.2175 19.1797 25.2865 17.972 24.4813L17.1233 23.9157C15.8703 23.0803 14.2128 23.1888 13.0794 24.1805L6.71155 30.5483C6.68203 30.37 6.66667 30.1868 6.66667 30M18.3333 15C18.3333 16.841 16.841 18.3333 15 18.3333C13.1591 18.3333 11.6667 16.841 11.6667 15C11.6667 13.1591 13.1591 11.6667 15 11.6667C16.841 11.6667 18.3333 13.1591 18.3333 15Z" stroke="white" stroke-width="1.5" stroke-linecap="round" stroke-linejoin="round"/>
<g clip-path="url(#clip2_1_2)">
<path d="M19.5 43C9.83398 43 2 50.834 2 60.5C2 70.166 9.83398 78 19.5 78C29.166 78 37 70.166 37 60.5C37 50.834 29.166 43 19.5 43ZM30.4238 71.417C29.002 72.8389 27.3545 73.9531 25.5156 74.7256C23.6152 75.5322 21.5918 75.9355 19.5 75.9355C17.415 75.9355 15.3916 75.5254 13.4844 74.7256C11.6455 73.9463 9.99121 72.832 8.57617 71.417C7.1543 69.9951 6.04004 68.3477 5.26758 66.5088C4.46094 64.6084 4.05078 62.585 4.05078 60.5C4.05078 58.415 4.46094 56.3916 5.26074 54.4844C6.04004 52.6455 7.1543 50.9912 8.56934 49.5762C9.99805 48.1543 11.6455 47.04 13.4844 46.2607C15.3916 45.4609 17.415 45.0508 19.5 45.0508C21.585 45.0508 23.6084 45.4609 25.5156 46.2607C27.3545 47.04 29.0088 48.1543 30.4238 49.5693C31.8457 50.9912 32.96 52.6387 33.7324 54.4775C34.5391 56.3779 34.9424 58.4014 34.9424 60.4932C34.9424 62.5781 34.5322 64.6016 33.7324 66.5088C32.9531 68.3477 31.8389 70.002 30.4238 71.417Z" fill="#666666"/>
<path d="M21.8105 54.5322C22.5146 54.5322 23.2666 54.751 23.2666 54.751L23.7178 52.0713C23.7178 52.0713 22.7607 51.7432 20.4775 51.7432C19.0762 51.7432 18.2627 52.2764 17.668 53.0625C17.1074 53.8076 17.0869 55.0039 17.0869 55.7764V57.5332H15.2754V60.1514H17.0869V69.2432H20.4775V60.1514H23.1641L23.3623 57.5332H20.4775V55.4893C20.4775 54.7852 21.1064 54.5322 21.8105 54.5322Z" fill="#666666"/>
</g>
<g clip-path="url(#clip3_1_2)">
<path d="M19.5 81C9.83398 81 2 88.834 2 98.5C2 108.166 9.83398 116 19.5 116C29.166 116 37 108.166 37 98.5C37 88.834 29.166 81 19.5 81ZM30.4238 109.417C29.002 110.839 27.3545 111.953 25.5156 112.726C23.6152 113.532 21.5918 113.936 19.5 113.936C17.415 113.936 15.3916 113.525 13.4844 112.726C11.6455 111.946 9.99121 110.832 8.57617 109.417C7.1543 107.995 6.04004 106.348 5.26758 104.509C4.46094 102.608 4.05078 100.585 4.05078 98.5C4.05078 96.415 4.46094 94.3916 5.26074 92.4844C6.04004 90.6455 7.1543 88.9912 8.56934 87.5762C9.99805 86.1543 11.6455 85.04 13.4844 84.2607C15.3916 83.4609 17.415 83.0508 19.5 83.0508C21.585 83.0508 23.6084 83.4609 25.5156 84.2607C27.3545 85.04 29.0088 86.1543 30.4238 87.5693C31.8457 88.9912 32.96 90.6387 33.7324 92.4775C34.5391 94.3779 34.9424 96.4014 34.9424 98.4932C34.9424 100.578 34.5322 102.602 33.7324 104.509C32.9531 106.348 31.8389 108.002 30.4238 109.417Z" fill="#EA1C20"/>
<path d="M21.8105 92.5322C22.5146 92.5322 23.2666 92.751 23.2666 92.751L23.7178 90.0713C23.7178 90.0713 22.7607 89.7432 20.4775 89.7432C19.0762 89.7432 18.2627 90.2764 17.668 91.0625C17.1074 91.8076 17.0869 93.0039 17.0869 93.7764V95.5332H15.2754V98.1514H17.0869V107.243H20.4775V98.1514H23.1641L23.3623 95.5332H20.4775V93.4893C20.4775 92.7852 21.1064 92.5322 21.8105 92.5322Z" fill="#EA1C20"/>
</g>
<g clip-path="url(#clip4_1_2)">
<path d="M57.5 43C47.834 43 40 50.834 40 60.5C40 70.166 47.834 78 57.5 78C67.166 78 75 70.166 75 60.5C75 50.834 67.166 43 57.5 43ZM68.4238 71.417C67.002 72.8389 65.3545 73.9531 63.5156 74.7256C61.6152 75.5322 59.5918 75.9355 57.5 75.9355C55.415 75.9355 53.3916 75.5254 51.4844 74.7256C49.6455 73.9463 47.9912 72.832 46.5762 71.417C45.1543 69.9951 44.04 68.3477 43.2676 66.5088C42.4609 64.6084 42.0508 62.585 42.0508 60.5C42.0508 58.415 42.4609 56.3916 43.2607 54.4844C44.04 52.6455 45.1543 50.9912 46.5693 49.5762C47.998 48.1543 49.6455 47.04 51.4844 46.2607C53.3916 45.4609 55.415 45.0508 57.5 45.0508C59.585 45.0508 61.6084 45.4609 63.5156 46.2607C65.3545 47.04 67.0088 48.1543 68.4238 49.5693C69.8457 50.9912 70.96 52.6387 71.7324 54.4775C72.5391 56.3779 72.9424 58.4014 72.9424 60.4932C72.9424 62.5781 72.5322 64.6016 71.7324 66.5088C70.9531 68.3477 69.8389 70.002 68.4238 71.417Z" fill="#666666"/>
<path d="M50.8151 68.6296L50.8151 68.6297C51.2887 68.9273 51.9114 69.1218 52.984 69.2258C54.0771 69.3318 55.4887 69.3333 57.5 69.3333C59.5113 69.3333 60.9229 69.3318 62.016 69.2258C63.0886 69.1218 63.7113 68.9273 64.1849 68.6297L64.1849 68.6296C64.7689 68.2627 65.2627 67.7689 65.6296 67.1849L65.6297 67.1849C65.9273 66.7113 66.1218 66.0886 66.2258 65.016C66.3318 63.9229 66.3333 62.5113 66.3333 60.5C66.3333 58.4887 66.3318 57.0771 66.2258 55.984C66.1218 54.9114 65.9273 54.2887 65.6297 53.8151L65.6296 53.8151C65.2627 53.2311 64.7689 52.7372 64.185 52.3702C63.7113 52.0727 63.0886 51.8781 62.0161 51.7742L62.016 51.7742C60.9229 51.6682 59.5113 51.6667 57.5 51.6667C55.4886 51.6667 54.0769 51.6682 52.984 51.7742L52.9839 51.7742C51.9115 51.8781 51.2888 52.0727 50.8151 52.3702L50.8151 68.6296ZM50.8151 68.6296C50.2311 68.2627 49.7372 67.7689 49.3702 67.185C49.0727 66.7113 48.8781 66.0886 48.7742 65.0161L48.7742 65.016M50.8151 68.6296L48.7742 65.016M48.7742 65.016C48.6682 63.9229 48.6667 62.5113 48.6667 60.5C48.6667 58.4887 48.6682 57.0771 48.7742 55.984L48.7742 55.9839M48.7742 65.016L48.7742 55.9839M48.7742 55.9839C48.8781 54.9115 49.0727 54.2888 49.3702 53.8151L48.7742 55.9839ZM49.3702 53.815C49.7372 53.231 50.231 52.7372 50.815 52.3702L49.3702 53.815Z" stroke="#666666"/>
<path d="M57.5 64.7424C59.843 64.7424 61.7424 62.843 61.7424 60.5C61.7424 58.157 59.843 56.2576 57.5 56.2576C55.157 56.2576 53.2576 58.157 53.2576 60.5C53.2576 62.843 55.157 64.7424 57.5 64.7424Z" stroke="#666666"/>
<path d="M63.0152 56.2576C63.7181 56.2576 64.2879 55.6878 64.2879 54.9848C64.2879 54.2819 63.7181 53.7121 63.0152 53.7121C62.3122 53.7121 61.7424 54.2819 61.7424 54.9848C61.7424 55.6878 62.3122 56.2576 63.0152 56.2576Z" fill="#666666"/>
<path d="M62.2045 54.9848C62.2045 54.5372 62.5675 54.1742 63.0152 54.1742C63.4628 54.1742 63.8258 54.5372 63.8258 54.9848C63.8258 55.4325 63.4628 55.7955 63.0152 55.7955C62.5675 55.7955 62.2045 55.4325 62.2045 54.9848Z" stroke="black" stroke-opacity="0.01" stroke-width="4.16667"/>
</g>
<g clip-path="url(#clip5_1_2)">
<path d="M57.5 81C47.834 81 40 88.834 40 98.5C40 108.166 47.834 116 57.5 116C67.166 116 75 108.166 75 98.5C75 88.834 67.166 81 57.5 81ZM68.4238 109.417C67.002 110.839 65.3545 111.953 63.5156 112.726C61.6152 113.532 59.5918 113.936 57.5 113.936C55.415 113.936 53.3916 113.525 51.4844 112.726C49.6455 111.946 47.9912 110.832 46.5762 109.417C45.1543 107.995 44.04 106.348 43.2676 104.509C42.4609 102.608 42.0508 100.585 42.0508 98.5C42.0508 96.415 42.4609 94.3916 43.2607 92.4844C44.04 90.6455 45.1543 88.9912 46.5693 87.5762C47.998 86.1543 49.6455 85.04 51.4844 84.2607C53.3916 83.4609 55.415 83.0508 57.5 83.0508C59.585 83.0508 61.6084 83.4609 63.5156 84.2607C65.3545 85.04 67.0088 86.1543 68.4238 87.5693C69.8457 88.9912 70.96 90.6387 71.7324 92.4775C72.5391 94.3779 72.9424 96.4014 72.9424 98.4932C72.9424 100.578 72.5322 102.602 71.7324 104.509C70.9531 106.348 69.8389 108.002 68.4238 109.417Z" fill="#EA1C20"/>
<path d="M50.8151 106.63L50.8151 106.63C51.2887 106.927 51.9114 107.122 52.984 107.226C54.0771 107.332 55.4887 107.333 57.5 107.333C59.5113 107.333 60.9229 107.332 62.016 107.226C63.0886 107.122 63.7113 106.927 64.1849 106.63L64.1849 106.63C64.7689 106.263 65.2627 105.769 65.6296 105.185L65.6297 105.185C65.9273 104.711 66.1218 104.089 66.2258 103.016C66.3318 101.923 66.3333 100.511 66.3333 98.5C66.3333 96.4887 66.3318 95.077 66.2258 93.984C66.1218 92.9114 65.9273 92.2887 65.6297 91.8151L65.6296 91.8151C65.2627 91.2311 64.7689 90.7372 64.185 90.3702C63.7113 90.0727 63.0886 89.8781 62.0161 89.7742L62.016 89.7742C60.9229 89.6682 59.5113 89.6667 57.5 89.6667C55.4886 89.6667 54.0769 89.6682 52.984 89.7742L52.9839 89.7742C51.9115 89.8781 51.2888 90.0727 50.8151 90.3702L50.8151 106.63ZM50.8151 106.63C50.2311 106.263 49.7372 105.769 49.3702 105.185C49.0727 104.711 48.8781 104.089 48.7742 103.016L48.7742 103.016M50.8151 106.63L48.7742 103.016M48.7742 103.016C48.6682 101.923 48.6667 100.511 48.6667 98.5C48.6667 96.4887 48.6682 95.077 48.7742 93.984L48.7742 93.9839M48.7742 103.016L48.7742 93.9839M48.7742 93.9839C48.8781 92.9115 49.0727 92.2888 49.3702 91.8151L48.7742 93.9839ZM49.3702 91.815C49.7372 91.231 50.231 90.7372 50.815 90.3702L49.3702 91.815Z" stroke="#EA1C20"/>
<path d="M57.5 102.742C59.843 102.742 61.7424 100.843 61.7424 98.5C61.7424 96.157 59.843 94.2576 57.5 94.2576C55.157 94.2576 53.2576 96.157 53.2576 98.5C53.2576 100.843 55.157 102.742 57.5 102.742Z" stroke="#EA1C20"/>
<path d="M63.0152 94.2576C63.7181 94.2576 64.2879 93.6878 64.2879 92.9848C64.2879 92.2819 63.7181 91.7121 63.0152 91.7121C62.3122 91.7121 61.7424 92.2819 61.7424 92.9848C61.7424 93.6878 62.3122 94.2576 63.0152 94.2576Z" fill="#EA1C20"/>
<path d="M62.2045 92.9848C62.2045 92.5372 62.5675 92.1742 63.0152 92.1742C63.4628 92.1742 63.8258 92.5372 63.8258 92.9848C63.8258 93.4325 63.4628 93.7955 63.0152 93.7955C62.5675 93.7955 62.2045 93.4325 62.2045 92.9848Z" stroke="black" stroke-opacity="0.01" stroke-width="4.16667"/>
</g>
<g clip-path="url(#clip6_1_2)">
<path d="M95.5 43C85.834 43 78 50.834 78 60.5C78 70.166 85.834 78 95.5 78C105.166 78 113 70.166 113 60.5C113 50.834 105.166 43 95.5 43ZM106.424 71.417C105.002 72.8389 103.354 73.9531 101.516 74.7256C99.6152 75.5322 97.5918 75.9355 95.5 75.9355C93.415 75.9355 91.3916 75.5254 89.4844 74.7256C87.6455 73.9463 85.9912 72.832 84.5762 71.417C83.1543 69.9951 82.04 68.3477 81.2676 66.5088C80.4609 64.6084 80.0508 62.585 80.0508 60.5C80.0508 58.415 80.4609 56.3916 81.2607 54.4844C82.04 52.6455 83.1543 50.9912 84.5693 49.5762C85.998 48.1543 87.6455 47.04 89.4844 46.2607C91.3916 45.4609 93.415 45.0508 95.5 45.0508C97.585 45.0508 99.6084 45.4609 101.516 46.2607C103.354 47.04 105.009 48.1543 106.424 49.5693C107.846 50.9912 108.96 52.6387 109.732 54.4775C110.539 56.3779 110.942 58.4014 110.942 60.4932C110.942 62.5781 110.532 64.6016 109.732 66.5088C108.953 68.3477 107.839 70.002 106.424 71.417Z" fill="#666666"/>
<path d="M92.6612 67.9132C90.5246 67.9132 88.5348 67.2868 86.8594 66.2093C87.8503 66.3297 88.8552 66.2533 89.8165 65.9847C90.7778 65.716 91.6767 65.2604 92.4617 64.6438C91.6716 64.6293 90.9059 64.3678 90.272 63.8961C89.6382 63.4243 89.1679 62.7659 88.9272 62.0133C89.1587 62.0585 89.396 62.082 89.6383 62.082C89.9838 62.082 90.3192 62.0351 90.6387 61.9512C89.7822 61.7777 89.012 61.3136 88.4585 60.6374C87.9051 59.9612 87.6023 59.1145 87.6015 58.2407V58.1912C88.1262 58.4835 88.7134 58.6457 89.3138 58.6641C88.795 58.3185 88.3698 57.8499 88.076 57.3C87.7822 56.7502 87.629 56.1363 87.63 55.5129C87.63 54.8219 87.8187 54.1695 88.1432 53.6111C89.0935 54.7803 90.2791 55.7366 91.6231 56.4177C92.9671 57.0989 94.4393 57.4897 95.9441 57.5648C95.7556 56.7533 95.8398 55.9024 96.1838 55.1436C96.5278 54.3849 97.1123 53.7607 97.8468 53.3677C98.5814 52.9747 99.425 52.8349 100.247 52.9699C101.069 53.1048 101.824 53.507 102.394 54.1142C103.241 53.9465 104.054 53.6363 104.797 53.1968C104.515 54.0731 103.924 54.8172 103.135 55.2915C103.885 55.202 104.617 55.0013 105.308 54.6961C104.799 55.4552 104.159 56.1185 103.42 56.6558C103.426 56.8176 103.431 56.9812 103.431 57.1447C103.431 62.1441 99.6228 67.9141 92.6612 67.9132Z" fill="#666666"/>
</g>
<g clip-path="url(#clip7_1_2)">
<path d="M95.5 81C85.834 81 78 88.834 78 98.5C78 108.166 85.834 116 95.5 116C105.166 116 113 108.166 113 98.5C113 88.834 105.166 81 95.5 81ZM106.424 109.417C105.002 110.839 103.354 111.953 101.516 112.726C99.6152 113.532 97.5918 113.936 95.5 113.936C93.415 113.936 91.3916 113.525 89.4844 112.726C87.6455 111.946 85.9912 110.832 84.5762 109.417C83.1543 107.995 82.04 106.348 81.2676 104.509C80.4609 102.608 80.0508 100.585 80.0508 98.5C80.0508 96.415 80.4609 94.3916 81.2607 92.4844C82.04 90.6455 83.1543 88.9912 84.5693 87.5762C85.998 86.1543 87.6455 85.04 89.4844 84.2607C91.3916 83.4609 93.415 83.0508 95.5 83.0508C97.585 83.0508 99.6084 83.4609 101.516 84.2607C103.354 85.04 105.009 86.1543 106.424 87.5693C107.846 88.9912 108.96 90.6387 109.732 92.4775C110.539 94.3779 110.942 96.4014 110.942 98.4932C110.942 100.578 110.532 102.602 109.732 104.509C108.953 106.348 107.839 108.002 106.424 109.417Z" fill="#EA1C20"/>
<path d="M92.6612 105.913C90.5246 105.913 88.5348 105.287 86.8594 104.209C87.8503 104.33 88.8552 104.253 89.8165 103.985C90.7778 103.716 91.6767 103.26 92.4617 102.644C91.6716 102.629 90.9059 102.368 90.272 101.896C89.6382 101.424 89.1679 100.766 88.9272 100.013C89.1587 100.059 89.396 100.082 89.6383 100.082C89.9838 100.082 90.3192 100.035 90.6387 99.9512C89.7822 99.7777 89.012 99.3136 88.4585 98.6374C87.9051 97.9612 87.6023 97.1145 87.6015 96.2406V96.1912C88.1262 96.4835 88.7134 96.6457 89.3138 96.6641C88.795 96.3185 88.3698 95.8499 88.076 95.3C87.7822 94.7502 87.629 94.1363 87.63 93.5129C87.63 92.8219 87.8187 92.1695 88.1432 91.6111C89.0935 92.7803 90.2791 93.7366 91.6231 94.4177C92.9671 95.0989 94.4393 95.4897 95.9441 95.5648C95.7556 94.7533 95.8398 93.9024 96.1838 93.1436C96.5278 92.3849 97.1123 91.7607 97.8468 91.3677C98.5814 90.9747 99.425 90.8349 100.247 90.9699C101.069 91.1048 101.824 91.507 102.394 92.1142C103.241 91.9465 104.054 91.6363 104.797 91.1968C104.515 92.0731 103.924 92.8172 103.135 93.2915C103.885 93.202 104.617 93.0013 105.308 92.6961C104.799 93.4552 104.159 94.1185 103.42 94.6558C103.426 94.8176 103.431 94.9812 103.431 95.1447C103.431 100.144 99.6228 105.914 92.6612 105.913Z" fill="#EA1C20"/>
</g>
<g clip-path="url(#clip8_1_2)">
<path d="M133.5 43C123.834 43 116 50.834 116 60.5C116 70.166 123.834 78 133.5 78C143.166 78 151 70.166 151 60.5C151 50.834 143.166 43 133.5 43ZM144.424 71.417C143.002 72.8389 141.354 73.9531 139.516 74.7256C137.615 75.5322 135.592 75.9355 133.5 75.9355C131.415 75.9355 129.392 75.5254 127.484 74.7256C125.646 73.9463 123.991 72.832 122.576 71.417C121.154 69.9951 120.04 68.3477 119.268 66.5088C118.461 64.6084 118.051 62.585 118.051 60.5C118.051 58.415 118.461 56.3916 119.261 54.4844C120.04 52.6455 121.154 50.9912 122.569 49.5762C123.998 48.1543 125.646 47.04 127.484 46.2607C129.392 45.4609 131.415 45.0508 133.5 45.0508C135.585 45.0508 137.608 45.4609 139.516 46.2607C141.354 47.04 143.009 48.1543 144.424 49.5693C145.846 50.9912 146.96 52.6387 147.732 54.4775C148.539 56.3779 148.942 58.4014 148.942 60.4932C148.942 62.5781 148.532 64.6016 147.732 66.5088C146.953 68.3477 145.839 70.002 144.424 71.417Z" fill="#666666"/>
<path d="M131.488 66.6471L131.346 67.1603C131.147 67.9861 130.691 68.7553 130.293 69.3824C131.261 69.6385 132.201 69.7816 133.198 69.7816C136.018 69.7816 138.553 68.6706 140.433 66.8194C142.285 64.9682 143.424 62.4043 143.424 59.5842C143.424 56.7642 142.285 54.2012 140.433 52.3491C138.553 50.4979 136.018 49.3586 133.198 49.3586C130.378 49.3586 127.843 50.4979 125.992 52.3491C124.112 54.2003 123.002 56.7642 123.002 59.5842C123.002 61.6924 123.6 63.6293 124.711 65.2243C125.794 66.8194 127.331 68.1301 129.098 68.8984C129.069 68.1866 129.126 67.3891 129.297 66.6198C129.326 66.3919 129.411 66.0501 129.525 65.5944C129.611 65.1952 129.753 64.6255 129.924 63.8854C130.096 63.1736 130.324 62.2329 130.58 61.0371C130.494 60.8658 130.438 60.6953 130.408 60.4957C130.294 60.1256 130.237 59.7839 130.266 59.4129C130.266 57.9318 131.121 56.7642 132.26 56.7642C133.2 56.7642 133.628 57.476 133.628 58.3027C133.628 58.7585 133.485 59.2999 133.286 59.9552C133.058 60.6388 132.858 61.2367 132.716 61.9203C132.574 62.4617 132.716 62.9457 133.03 63.3158C133.343 63.6576 133.827 63.8854 134.34 63.8854C135.309 63.8854 136.107 63.2875 136.676 62.2904C137.246 61.2932 137.588 59.926 137.588 58.4449C137.588 57.3339 137.218 56.3941 136.477 55.6823C135.736 54.9704 134.682 54.5712 133.315 54.5712C131.776 54.5712 130.523 55.1126 129.641 56.0241C128.759 56.9355 128.274 58.1605 128.274 59.4703C128.274 60.2961 128.53 60.9232 128.986 61.4354C129.128 61.6633 129.185 61.749 129.128 62.0051C129.099 62.0908 129.042 62.2329 129.014 62.4043C128.928 62.7743 128.9 63.2592 128.387 63.0879C126.962 62.5182 126.308 60.9232 126.308 59.1568C126.308 57.7039 126.906 56.1371 128.131 54.913C129.356 53.6598 131.207 52.8048 133.599 52.8048C135.564 52.8048 137.189 53.4884 138.328 54.5995C139.467 55.6823 140.065 57.1634 140.065 58.6445C140.065 60.6671 139.524 62.4043 138.556 63.6576C137.588 64.9108 136.192 65.6518 134.568 65.6518C133.457 65.6518 132.432 65.0822 132.062 64.3703C131.89 64.9974 131.776 65.4531 131.692 65.7949C131.606 66.165 131.549 66.4785 131.492 66.6499L131.488 66.6471Z" fill="#666666"/>
</g>
<g clip-path="url(#clip9_1_2)">
<path d="M133.5 81C123.834 81 116 88.834 116 98.5C116 108.166 123.834 116 133.5 116C143.166 116 151 108.166 151 98.5C151 88.834 143.166 81 133.5 81ZM144.424 109.417C143.002 110.839 141.354 111.953 139.516 112.726C137.615 113.532 135.592 113.936 133.5 113.936C131.415 113.936 129.392 113.525 127.484 112.726C125.646 111.946 123.991 110.832 122.576 109.417C121.154 107.995 120.04 106.348 119.268 104.509C118.461 102.608 118.051 100.585 118.051 98.5C118.051 96.415 118.461 94.3916 119.261 92.4844C120.04 90.6455 121.154 88.9912 122.569 87.5762C123.998 86.1543 125.646 85.04 127.484 84.2607C129.392 83.4609 131.415 83.0508 133.5 83.0508C135.585 83.0508 137.608 83.4609 139.516 84.2607C141.354 85.04 143.009 86.1543 144.424 87.5693C145.846 88.9912 146.96 90.6387 147.732 92.4775C148.539 94.3779 148.942 96.4014 148.942 98.4932C148.942 100.578 148.532 102.602 147.732 104.509C146.953 106.348 145.839 108.002 144.424 109.417Z" fill="#EA1C20"/>
<path d="M131.488 104.647L131.346 105.16C131.147 105.986 130.691 106.755 130.293 107.382C131.261 107.639 132.201 107.782 133.198 107.782C136.018 107.782 138.553 106.671 140.433 104.819C142.285 102.968 143.424 100.404 143.424 97.5842C143.424 94.7642 142.285 92.2012 140.433 90.3491C138.553 88.4979 136.018 87.3586 133.198 87.3586C130.378 87.3586 127.843 88.4979 125.992 90.3491C124.112 92.2003 123.002 94.7642 123.002 97.5842C123.002 99.6925 123.6 101.629 124.711 103.224C125.794 104.819 127.331 106.13 129.098 106.898C129.069 106.187 129.126 105.389 129.297 104.62C129.326 104.392 129.411 104.05 129.525 103.594C129.611 103.195 129.753 102.626 129.924 101.885C130.096 101.174 130.324 100.233 130.58 99.0371C130.494 98.8658 130.438 98.6953 130.408 98.4957C130.294 98.1257 130.237 97.7839 130.266 97.4129C130.266 95.9318 131.121 94.7642 132.26 94.7642C133.2 94.7642 133.628 95.476 133.628 96.3027C133.628 96.7585 133.485 97.2999 133.286 97.9552C133.058 98.6388 132.858 99.2367 132.716 99.9203C132.574 100.462 132.716 100.946 133.03 101.316C133.343 101.658 133.827 101.885 134.34 101.885C135.309 101.885 136.107 101.288 136.676 100.29C137.246 99.2932 137.588 97.926 137.588 96.4449C137.588 95.3339 137.218 94.3941 136.477 93.6823C135.736 92.9704 134.682 92.5712 133.315 92.5712C131.776 92.5712 130.523 93.1126 129.641 94.0241C128.759 94.9355 128.274 96.1605 128.274 97.4703C128.274 98.2961 128.53 98.9232 128.986 99.4354C129.128 99.6633 129.185 99.749 129.128 100.005C129.099 100.091 129.042 100.233 129.014 100.404C128.928 100.774 128.9 101.259 128.387 101.088C126.962 100.518 126.308 98.9232 126.308 97.1568C126.308 95.7039 126.906 94.1371 128.131 92.913C129.356 91.6598 131.207 90.8048 133.599 90.8048C135.564 90.8048 137.189 91.4884 138.328 92.5995C139.467 93.6823 140.065 95.1634 140.065 96.6445C140.065 98.6671 139.524 100.404 138.556 101.658C137.588 102.911 136.192 103.652 134.568 103.652C133.457 103.652 132.432 103.082 132.062 102.37C131.89 102.997 131.776 103.453 131.692 103.795C131.606 104.165 131.549 104.479 131.492 104.65L131.488 104.647Z" fill="#EA1C20"/>
</g>
<g clip-path="url(#clip10_1_2)">
<path d="M171.5 43C161.834 43 154 50.834 154 60.5C154 70.166 161.834 78 171.5 78C181.166 78 189 70.166 189 60.5C189 50.834 181.166 43 171.5 43ZM182.424 71.417C181.002 72.8389 179.354 73.9531 177.516 74.7256C175.615 75.5322 173.592 75.9355 171.5 75.9355C169.415 75.9355 167.392 75.5254 165.484 74.7256C163.646 73.9463 161.991 72.832 160.576 71.417C159.154 69.9951 158.04 68.3477 157.268 66.5088C156.461 64.6084 156.051 62.585 156.051 60.5C156.051 58.415 156.461 56.3916 157.261 54.4844C158.04 52.6455 159.154 50.9912 160.569 49.5762C161.998 48.1543 163.646 47.04 165.484 46.2607C167.392 45.4609 169.415 45.0508 171.5 45.0508C173.585 45.0508 175.608 45.4609 177.516 46.2607C179.354 47.04 181.009 48.1543 182.424 49.5693C183.846 50.9912 184.96 52.6387 185.732 54.4775C186.539 56.3779 186.942 58.4014 186.942 60.4932C186.942 62.5781 186.532 64.6016 185.732 66.5088C184.953 68.3477 183.839 70.002 182.424 71.417Z" fill="#666666"/>
<path d="M171.5 67.0333V53.9667M171.5 53.9667L166.833 58.6333M171.5 53.9667L176.167 58.6333" stroke="#666666" stroke-width="1.5" stroke-linecap="round" stroke-linejoin="round"/>
</g>
<g clip-path="url(#clip11_1_2)">
<path d="M171.5 81C161.834 81 154 88.834 154 98.5C154 108.166 161.834 116 171.5 116C181.166 116 189 108.166 189 98.5C189 88.834 181.166 81 171.5 81ZM182.424 109.417C181.002 110.839 179.354 111.953 177.516 112.726C175.615 113.532 173.592 113.936 171.5 113.936C169.415 113.936 167.392 113.525 165.484 112.726C163.646 111.946 161.991 110.832 160.576 109.417C159.154 107.995 158.04 106.348 157.268 104.509C156.461 102.608 156.051 100.585 156.051 98.5C156.051 96.415 156.461 94.3916 157.261 92.4844C158.04 90.6455 159.154 88.9912 160.569 87.5762C161.998 86.1543 163.646 85.04 165.484 84.2607C167.392 83.4609 169.415 83.0508 171.5 83.0508C173.585 83.0508 175.608 83.4609 177.516 84.2607C179.354 85.04 181.009 86.1543 182.424 87.5693C183.846 88.9912 184.96 90.6387 185.732 92.4775C186.539 94.3779 186.942 96.4014 186.942 98.4932C186.942 100.578 186.532 102.602 185.732 104.509C184.953 106.348 183.839 108.002 182.424 109.417Z" fill="#EA1C20"/>
<path d="M171.5 105.033V91.9667M171.5 91.9667L166.833 96.6333M171.5 91.9667L176.167 96.6333" stroke="#EA1C20" stroke-width="1.5" stroke-linecap="round" stroke-linejoin="round"/>
</g>
<defs>
<clipPath id="clip0_1_2">
<rect width="19" height="19" fill="white" transform="translate(118 10)"/>
</clipPath>
<clipPath id="clip1_1_2">
<rect width="21" height="21" fill="white" transform="translate(189 9)"/>
</clipPath>
<clipPath id="clip2_1_2">
<rect width="35" height="35" fill="white" transform="translate(2 43)"/>
</clipPath>
<clipPath id="clip3_1_2">
<rect width="35" height="35" fill="white" transform="translate(2 81)"/>
</clipPath>
<clipPath id="clip4_1_2">
<rect width="35" height="35" fill="white" transform="translate(40 43)"/>
</clipPath>
<clipPath id="clip5_1_2">
<rect width="35" height="35" fill="white" transform="translate(40 81)"/>
</clipPath>
<clipPath id="clip6_1_2">
<rect width="35" height="35" fill="white" transform="translate(78 43)"/>
</clipPath>
<clipPath id="clip7_1_2">
<rect width="35" height="35" fill="white" transform="translate(78 81)"/>
</clipPath>
<clipPath id="clip8_1_2">
<rect width="35" height="35" fill="white" transform="translate(116 43)"/>
</clipPath>
<clipPath id="clip9_1_2">
<rect width="35" height="35" fill="white" transform="translate(116 81)"/>
</clipPath>
<clipPath id="clip10_1_2">
<rect width="35" height="35" fill="white" transform="translate(154 43)"/>
</clipPath>
<clipPath id="clip11_1_2">
<rect width="35" height="35" fill="white" transform="translate(154 81)"/>
</clipPath>
</defs>
</svg>
